<svg xmlns="http://www.w3.org/2000/svg" width="800" height="800" fill="none" viewBox="0 0 24 24"><path fill="#222" fill-rule="evenodd" d="M3.75 12a8.25 8.25 0 1 1 16.5 0 8.25 8.25 0 0 1-16.5 0zM12 2.25c-5.385 0-9.75 4.365-9.75 9.75s4.365 9.75 9.75 9.75 9.75-4.365 9.75-9.75S17.385 2.25 12 2.25zm-.154 5.644-.03-.018a13.461 13.461 0 0 0-.97-.574c-.274-.138-.61-.272-.986-.242a1.75 1.75 0 0 0-1.265.7c-.225.304-.29.66-.317.965-.028.303-.028.686-.028 1.127v4.296c0 .441 0 .824.028 1.127.028.305.092.661.317.964.3.405.762.66 1.265.701.376.03.712-.104.986-.242.272-.137.596-.34.97-.574l.03-.018 3.38-2.113.029-.018c.336-.21.63-.394.853-.563.229-.174.475-.399.614-.723a1.75 1.75 0 0 0 0-1.378c-.14-.324-.385-.549-.614-.723-.223-.17-.517-.353-.853-.563l-.028-.018zm-2.038.75a.25.25 0 0 1 .158-.087c.017.004.077.02.204.084.203.103.468.267.88.525l3.382 2.113c.372.233.607.38.769.503a.9.9 0 0 1 .146.13.25.25 0 0 1 0 .176.9.9 0 0 1-.146.13c-.162.122-.397.27-.77.503l-3.38 2.113c-.413.258-.678.422-.88.525a.998.998 0 0 1-.205.084.25.25 0 0 1-.158-.087 1.006 1.006 0 0 1-.036-.218c-.021-.226-.022-.539-.022-1.025V9.887c0-.486 0-.799.022-1.025.012-.141.03-.201.036-.218z" clip-rule="evenodd"/></svg>