<svg preserveAspectRatio="xMidYMid slice" width="700px" height="112px" xmlns="http://www.w3.org/2000/svg" xml:space="preserve" style="fill-rule:evenodd;clip-rule:evenodd;stroke-linejoin:round;stroke-miterlimit:2" viewBox="0 0 2475 402"><path d="M-21.751-56.703h2509.64v470.711H-21.751z" style="fill:none" transform="matrix(.98596 0 0 .85374 21.445 48.41)"/><path d="M.086-.034c.028.024.07.043.12.043.141 0 .249-.135.249-.294C.455-.414.378-.51.282-.51c-.079 0-.142.055-.179.103l.001-.05v-.329H.101a.14.14 0 0 1-.089.047v.003c.031.012.044.035.044.07v.671h.002l.028-.039Zm.315-.233c.002.157-.083.264-.193.264-.058 0-.104-.032-.104-.098v-.296c.05-.046.095-.07.15-.07.086 0 .145.078.147.2Z" style="fill-rule:nonzero" transform="matrix(99.9998 0 0 99.99977 1890.314 296.499)"/><path d="M.043.212C.115.212.159.159.2.049l.167-.45c.015-.038.042-.08.063-.091v-.003H.326v.003c.028.018.04.048.025.087l-.124.338L.09-.405c-.016-.04-.003-.07.027-.087v-.003h-.14v.003c.019.012.034.024.06.087L.202 0 .187.043C.152.137.112.192.059.192c-.066 0-.036-.09-.09-.09a.033.033 0 0 0-.034.034c0 .035.047.076.108.076Z" style="fill-rule:nonzero" transform="matrix(99.9998 0 0 99.99977 1940.014 296.499)"/><path d="M.078-.126c-.022.06-.061.11-.095.123V0h.17v-.003a.093.093 0 0 1-.055-.124l.055-.157h.284L.5-.118c.02.055.004.101-.037.115V0h.175v-.003C.607-.015.585-.049.558-.121L.317-.755h-.01l-.229.629Zm.081-.173.133-.372.139.372H.159Z" style="fill-rule:nonzero" transform="matrix(99.9998 0 0 99.99977 1998.514 296.499)"/><path d="M.117-.786H.113a.135.135 0 0 1-.09.047v.003c.03.012.045.037.045.07v.59a.079.079 0 0 1-.042.073V0h.131v-.003a.08.08 0 0 1-.04-.073v-.71Z" style="fill-rule:nonzero" transform="matrix(99.9998 0 0 99.99977 2063.014 296.499)"/><path d="M.043.212C.115.212.159.159.2.049l.167-.45c.015-.038.042-.08.063-.091v-.003H.326v.003c.028.018.04.048.025.087l-.124.338L.09-.405c-.016-.04-.003-.07.027-.087v-.003h-.14v.003c.019.012.034.024.06.087L.202 0 .187.043C.152.137.112.192.059.192c-.066 0-.036-.09-.09-.09a.033.033 0 0 0-.034.034c0 .035.047.076.108.076Z" style="fill-rule:nonzero" transform="matrix(99.9998 0 0 99.99977 2082.914 296.499)"/><path d="M.259.01c.198 0 .358-.138.358-.389 0-.232-.15-.381-.379-.381-.063 0-.127.008-.205.02v.003a.08.08 0 0 1 .055.073v.578c0 .035-.017.059-.055.073v.003c.066.011.146.02.226.02Zm.009-.017c-.082 0-.125-.04-.125-.107v-.531c0-.065.036-.099.11-.099.189 0 .298.143.298.376 0 .248-.105.361-.283.361Z" style="fill-rule:nonzero" transform="matrix(99.9998 0 0 99.99977 2143.414 296.499)"/><path d="M.093-.605c.021 0 .038-.019.038-.04 0-.023-.017-.041-.038-.041-.021 0-.038.018-.038.041 0 .021.017.04.038.04ZM.031 0h.131v-.003C.139-.017.124-.041.124-.076v-.432H.121a.135.135 0 0 1-.091.047v.003c.033.013.044.041.044.07v.312a.081.081 0 0 1-.043.073V0Z" style="fill-rule:nonzero" transform="matrix(99.9998 0 0 99.99977 2210.314 296.499)"/><path d="M.033-.74v.003c.038.014.055.039.055.073v.578c0 .039-.016.069-.055.083V0h.166v-.003C.161-.017.143-.047.143-.086v-.26l.016.007a.838.838 0 0 0 .43.371L.591.028a.981.981 0 0 1-.357-.349.26.26 0 0 0 .048.004c.116 0 .254-.075.254-.227 0-.129-.101-.216-.28-.216-.058 0-.139.009-.223.02Zm.11.095c0-.065.036-.1.118-.1.14 0 .215.084.215.209 0 .129-.084.202-.213.202a.375.375 0 0 1-.12-.02v-.291Z" style="fill-rule:nonzero" transform="matrix(99.9998 0 0 99.99977 2230.914 296.499)"/><path d="M.03-.249c0 .142.096.264.211.264.116 0 .21-.121.21-.264C.451-.391.36-.51.241-.51.124-.51.03-.39.03-.249Zm.059 0c0-.146.053-.249.152-.249.1 0 .152.103.152.249 0 .147-.057.252-.152.252-.096 0-.152-.105-.152-.252Z" style="fill-rule:nonzero" transform="matrix(99.9998 0 0 99.99977 2285.313 296.499)"/><path d="M.028-.003V0h.137v-.003C.137-.021.123-.045.123-.075v-.311C.185-.442.236-.468.28-.468c.055 0 .083.038.083.089v.304c0 .03-.013.054-.043.072V0h.13v-.003a.083.083 0 0 1-.038-.073v-.31c.061-.056.112-.082.156-.082.056 0 .084.038.084.089v.304c0 .03-.013.054-.043.072V0h.13v-.003A.084.084 0 0 1 .7-.076v-.319C.7-.463.661-.51.596-.51c-.068 0-.136.057-.185.114C.412-.463.372-.51.308-.51c-.069 0-.138.057-.186.114l.001-.053v-.059H.12a.126.126 0 0 1-.092.047v.003c.034.014.046.033.046.065v.317c0 .031-.017.054-.046.073Z" style="fill-rule:nonzero" transform="matrix(99.9998 0 0 99.99977 2335.013 296.499)"/><path d="M.025-.096c0 .061.042.11.108.11.07 0 .147-.055.185-.102v.032c0 .044.02.071.055.071.031 0 .06-.024.077-.048L.448-.035a.071.071 0 0 1-.047.02c-.027 0-.035-.02-.035-.051l.003-.348C.369-.47.325-.51.248-.51c-.097 0-.202.065-.202.118 0 .018.012.032.032.032.067 0 .03-.138.166-.138.057 0 .076.031.076.084l-.001.101c-.187.026-.294.122-.294.217Zm.054-.019c0-.084.072-.157.24-.187l-.001.203a.222.222 0 0 1-.153.073C.11-.026.079-.061.079-.115Z" style="fill-rule:nonzero" transform="matrix(99.9998 0 0 99.99977 2412.813 296.499)"/><path d="m.294-.75.161.546-.027.009.179-.555h.185v.01a.089.089 0 0 0-.046.039.096.096 0 0 0-.011.061l.069.543c.003.021.01.039.022.053a.112.112 0 0 0 .042.033V0H.634v-.011a.096.096 0 0 0 .041-.033.066.066 0 0 0 .012-.052l-.075-.59H.63L.409.01H.395L.189-.692l.018.001-.076.576a.107.107 0 0 0 .01.065.08.08 0 0 0 .042.039V0H.021v-.011a.101.101 0 0 0 .045-.04.157.157 0 0 0 .023-.064l.07-.526A.091.091 0 0 0 .101-.74v-.01h.193Z" style="fill-rule:nonzero" transform="matrix(349.99931 0 0 349.9992 20.258 299.262)"/><path d="M.033-.257A.3.3 0 0 1 .1-.447a.226.226 0 0 1 .073-.058.2.2 0 0 1 .091-.021c.032 0 .062.007.09.021a.24.24 0 0 1 .123.143.304.304 0 0 1 .017.105.306.306 0 0 1-.068.193.226.226 0 0 1-.073.058.198.198 0 0 1-.179 0 .273.273 0 0 1-.123-.145.306.306 0 0 1-.018-.106Zm.12 0a.57.57 0 0 0 .012.123.205.205 0 0 0 .038.084.075.075 0 0 0 .122 0 .205.205 0 0 0 .037-.084.554.554 0 0 0 .001-.245.206.206 0 0 0-.037-.083.077.077 0 0 0-.063-.03.076.076 0 0 0-.061.03.194.194 0 0 0-.037.083.554.554 0 0 0-.012.122Z" style="fill-rule:nonzero" transform="matrix(349.99931 0 0 349.9992 294.658 299.262)"/><path d="M.205.015a.136.136 0 0 1-.085-.03.217.217 0 0 1-.062-.082.278.278 0 0 1-.024-.117c0-.041.006-.08.018-.117a.32.32 0 0 1 .051-.097.248.248 0 0 1 .08-.068.216.216 0 0 1 .143-.02c.012.002.024.006.036.01V-.62a.113.113 0 0 0-.015-.061.09.09 0 0 0-.041-.034v-.01a.403.403 0 0 0 .058-.013.261.261 0 0 0 .098-.056h.009v.653c0 .027.004.048.012.064.007.016.02.027.037.034v.008a.342.342 0 0 0-.149.054H.362v-.074l.002-.022-.002-.001a.282.282 0 0 1-.096.079.14.14 0 0 1-.061.014Zm.064-.078a.112.112 0 0 0 .047-.011.197.197 0 0 0 .046-.033v-.294a.097.097 0 0 0-.02-.063.07.07 0 0 0-.055-.024.099.099 0 0 0-.072.031.202.202 0 0 0-.048.084.325.325 0 0 0-.017.116c0 .06.011.108.032.142.021.035.05.052.087.052Z" style="fill-rule:nonzero" transform="matrix(349.99931 0 0 349.9992 467.904 299.262)"/><path d="M.137-.293c0 .048.007.089.021.122a.16.16 0 0 0 .056.076c.023.018.05.027.081.027a.153.153 0 0 0 .133-.078l.011.005a.21.21 0 0 1-.112.138A.198.198 0 0 1 .1-.049a.244.244 0 0 1-.048-.08.3.3 0 0 1-.018-.109.34.34 0 0 1 .065-.203.23.23 0 0 1 .073-.063.185.185 0 0 1 .09-.022c.035 0 .067.009.094.026a.192.192 0 0 1 .065.073.235.235 0 0 1 .024.108v.022H.083v-.035h.248A.286.286 0 0 0 .32-.414a.127.127 0 0 0-.032-.055.064.064 0 0 0-.047-.019.076.076 0 0 0-.051.021.136.136 0 0 0-.038.064.335.335 0 0 0-.015.11Z" style="fill-rule:nonzero" transform="matrix(349.99931 0 0 349.9992 645.354 299.262)"/><path d="m.192-.47-.001.028L.19-.42l.002.001A.239.239 0 0 1 .271-.51.089.089 0 0 1 .32-.526c.018 0 .033.007.046.02a.066.066 0 0 1 .019.049c0 .02-.005.035-.016.047a.055.055 0 0 1-.038.017.049.049 0 0 1-.025-.006l-.02-.015-.018-.015a.04.04 0 0 0-.049.005.454.454 0 0 0-.027.03v.292a.103.103 0 0 0 .052.092V0H.03v-.011a.09.09 0 0 0 .039-.036.11.11 0 0 0 .014-.055v-.256A.127.127 0 0 0 .07-.42a.07.07 0 0 0-.04-.03v-.011a.39.39 0 0 0 .057-.013.253.253 0 0 0 .096-.056h.009v.06Z" style="fill-rule:nonzero" transform="matrix(349.99931 0 0 349.9992 797.604 299.262)"/><path d="M.03-.011a.1.1 0 0 0 .053-.091v-.256A.125.125 0 0 0 .07-.42a.072.072 0 0 0-.04-.031v-.01a.39.39 0 0 0 .057-.013.232.232 0 0 0 .053-.024.21.21 0 0 0 .043-.032h.009v.094l-.001.027.001.001a.498.498 0 0 1 .129-.1.162.162 0 0 1 .071-.018c.03 0 .054.01.071.031a.127.127 0 0 1 .025.082v.311c0 .022.004.041.012.057a.067.067 0 0 0 .032.034V0H.329v-.011a.098.098 0 0 0 .05-.091v-.267a.1.1 0 0 0-.013-.054.047.047 0 0 0-.041-.02.143.143 0 0 0-.058.013.346.346 0 0 0-.075.047v.281c0 .022.005.04.014.054a.119.119 0 0 0 .037.037V0H.03v-.011Z" style="fill-rule:nonzero" transform="matrix(349.99931 0 0 349.9992 929.204 299.262)"/><path d="M.094-.633a.104.104 0 0 0-.016-.059.105.105 0 0 0-.047-.038v-.01a1.706 1.706 0 0 1 .252-.02.49.49 0 0 1 .149.019.213.213 0 0 1 .094.055.124.124 0 0 1 .032.084c0 .032-.008.06-.024.083a.21.21 0 0 1-.063.059.37.37 0 0 1-.178.047H.146v-.026h.131a.169.169 0 0 0 .117-.039.14.14 0 0 0 .042-.109.153.153 0 0 0-.017-.074.117.117 0 0 0-.049-.047.146.146 0 0 0-.071-.017c-.029 0-.051.007-.066.021C.218-.69.211-.67.211-.643v.536c0 .027.008.048.025.062.017.014.042.021.075.021a.166.166 0 0 0 .087-.023.164.164 0 0 0 .057-.067.232.232 0 0 0 .02-.102.183.183 0 0 0-.051-.138.21.21 0 0 0-.147-.048H.146v-.026h.147a.46.46 0 0 1 .109.014c.036.01.07.024.102.042a.232.232 0 0 1 .075.071.172.172 0 0 1 .028.099.185.185 0 0 1-.035.11.233.233 0 0 1-.105.075.464.464 0 0 1-.169.027L.207.008.119 0a2.363 2.363 0 0 1-.088-.01v-.01a.099.099 0 0 0 .063-.098v-.515Z" style="fill-rule:nonzero" transform="matrix(349.99931 0 0 349.9992 1167.203 299.262)"/><path d="M.033-.257A.3.3 0 0 1 .1-.447a.226.226 0 0 1 .073-.058.2.2 0 0 1 .091-.021c.032 0 .062.007.09.021a.24.24 0 0 1 .123.143.304.304 0 0 1 .017.105.306.306 0 0 1-.068.193.226.226 0 0 1-.073.058.198.198 0 0 1-.179 0 .273.273 0 0 1-.123-.145.306.306 0 0 1-.018-.106Zm.12 0a.57.57 0 0 0 .012.123.205.205 0 0 0 .038.084.075.075 0 0 0 .122 0 .205.205 0 0 0 .037-.084.554.554 0 0 0 .001-.245.206.206 0 0 0-.037-.083.077.077 0 0 0-.063-.03.076.076 0 0 0-.061.03.194.194 0 0 0-.037.083.554.554 0 0 0-.012.122Z" style="fill-rule:nonzero" transform="matrix(349.99931 0 0 349.9992 1377.203 299.262)"/><path d="M.205.015a.136.136 0 0 1-.085-.03.217.217 0 0 1-.062-.082.278.278 0 0 1-.024-.117c0-.041.006-.08.018-.117a.32.32 0 0 1 .051-.097.248.248 0 0 1 .08-.068.216.216 0 0 1 .143-.02c.012.002.024.006.036.01V-.62a.113.113 0 0 0-.015-.061.09.09 0 0 0-.041-.034v-.01a.403.403 0 0 0 .058-.013.261.261 0 0 0 .098-.056h.009v.653c0 .027.004.048.012.064.007.016.02.027.037.034v.008a.342.342 0 0 0-.149.054H.362v-.074l.002-.022-.002-.001a.282.282 0 0 1-.096.079.14.14 0 0 1-.061.014Zm.064-.078a.112.112 0 0 0 .047-.011.197.197 0 0 0 .046-.033v-.294a.097.097 0 0 0-.02-.063.07.07 0 0 0-.055-.024.099.099 0 0 0-.072.031.202.202 0 0 0-.048.084.325.325 0 0 0-.017.116c0 .06.011.108.032.142.021.035.05.052.087.052Z" style="fill-rule:nonzero" transform="matrix(349.99931 0 0 349.9992 1550.452 299.262)"/><path d="M.285-.137.226.006.057-.395a.416.416 0 0 0-.036-.071.1.1 0 0 0-.038-.036v-.009h.229v.009a.089.089 0 0 0-.03.024.06.06 0 0 0-.013.035c0 .013.003.029.011.048l.105.258ZM.062.214A.112.112 0 0 1 .018.205.094.094 0 0 1-.017.179.07.07 0 0 1-.03.14c0-.018.006-.033.017-.043A.05.05 0 0 1 .024.081c.012 0 .022.003.029.01a.067.067 0 0 1 .019.022l.017.022A.029.029 0 0 0 .11.144.047.047 0 0 0 .145.127a.187.187 0 0 0 .028-.04.817.817 0 0 0 .023-.052l.171-.43a.084.084 0 0 0 .009-.047.066.066 0 0 0-.013-.037.067.067 0 0 0-.027-.023v-.009h.149v.009a.079.079 0 0 0-.027.023.373.373 0 0 0-.025.039l-.022.045-.183.446a.45.45 0 0 1-.046.088.205.205 0 0 1-.053.056.128.128 0 0 1-.067.019Z" style="fill-rule:nonzero" transform="matrix(349.99931 0 0 349.9992 1728.602 299.262)"/></svg>