<?xml version="1.0" encoding="UTF-8" standalone="no"?>
<svg preserveAspectRatio="xMidYMid slice" width="1000px" height="221px" xmlns="http://www.w3.org/2000/svg" xmlns:xlink="http://www.w3.org/1999/xlink" xmlns:serif="http://www.serif.com/"   viewBox="0 0 1768 391" version="1.1" xml:space="preserve" style="fill-rule:evenodd;clip-rule:evenodd;stroke-linejoin:round;stroke-miterlimit:2;">
  <path d="M115.687,49.218l-58.2,0l-0,3c12,4.5 19.2,16.2 17.4,29.7l-21,157.8c-2.1,14.7 -9.6,26.4 -20.4,31.2l-0,3.3l48.6,0l-0,-3.3c-10.5,-4.2 -17.4,-16.5 -15.6,-31.2l21.3,-159.9l57.9,197.4l4.2,0l62.4,-196.5l21.3,164.7c1.5,12.3 -6.3,21 -16.2,25.5l-0,3.3l70.2,0l-0,-3.3c-10.2,-4.5 -17.7,-13.2 -19.2,-26.1l-20.7,-162.6c-1.8,-13.8 4.8,-25.5 17.1,-30l-0,-3l-55.5,0l-48.9,151.8l-44.7,-151.8Z" style="fill-rule:nonzero;"></path>
  <path d="M298.087,197.118c-0,45 31.2,81.6 69,81.6c38.1,0 69.6,-36.3 69.6,-81.6c-0,-45 -30.3,-80.7 -69.6,-80.7c-38.7,0 -69,36 -69,80.7Zm36,0c-0,-41.4 11.1,-70.5 33,-70.5c22.8,0 33.6,29.1 33.6,70.5c-0,41.4 -11.7,71.4 -33.6,71.4c-21.3,0 -33,-30 -33,-71.4Z" style="fill-rule:nonzero;"></path>
  <path d="M507.787,278.718c19.2,0 36.6,-14.7 47.1,-27.9l0.3,0c-0,3.9 -0.3,9.6 -0.3,14.7l-0,14.1l2.7,0c13.2,-8.1 28.5,-14.1 44.7,-15.9l-0,-2.7c-10.2,-3.9 -14.7,-13.2 -14.7,-29.1l-0,-195.9l-2.7,0c-11.1,10.5 -29.4,18.6 -46.8,20.7l-0,3c10.2,3.9 16.5,13.5 16.5,28.2l-0,34.5c-6.6,-2.4 -14.1,-4.2 -22.8,-4.2c-45.3,0 -75.3,42.9 -75.3,91.8c-0,39.3 23.7,68.7 51.3,68.7Zm18.9,-23.4c-21.9,0 -35.4,-21.9 -35.4,-58.2c-0.3,-38.4 16.5,-69.3 41.1,-69.3c13.8,0 22.2,10.5 22.2,26.1l-0,88.2c-9,8.7 -18,13.2 -27.9,13.2Z" style="fill-rule:nonzero;"></path>
  <path d="M650.587,186.618l-0,-1.5l92.4,0l-0,-6.6c-0,-36.6 -23.4,-62.1 -54.9,-62.1c-39.3,0 -68.4,39 -68.4,86.4c-0,49.5 31.5,75.9 63.6,75.9c25.5,0 49.8,-17.1 57.9,-46.8l-3.3,-1.5c-8.4,14.7 -23.1,23.4 -39.9,23.4c-27.6,0 -47.4,-24.3 -47.4,-67.2Zm31.2,-58.8c16.5,0 27,18.3 27,46.8l-57.6,0c2.4,-32.1 15.9,-46.8 30.6,-46.8Z" style="fill-rule:nonzero;"></path>
  <path d="M809.287,133.218l-0,-18l-2.7,0c-10.8,10.5 -28.8,18.6 -45.9,20.7l-0,3.3c11.1,3.9 15.6,11.1 15.6,27.3l-0,77.1c-0,12.6 -5.4,22.2 -15.6,27.3l-0,3.3l64.2,0l-0,-3.3c-9.3,-5.4 -15.6,-14.7 -15.6,-27.3l-0,-87.6c5.7,-7.2 10.5,-12.3 16.2,-12.3c9.9,0 13.8,12.6 25.5,12.6c8.1,0 16.2,-7.5 16.2,-19.2c-0,-11.7 -9,-20.7 -19.5,-20.7c-14.7,0 -30.6,15.9 -38.4,32.1l-0.6,-0.3c0.3,-3 0.6,-9.6 0.6,-15Z" style="fill-rule:nonzero;"></path>
  <path d="M876.187,270.918l-0,3.3l63.9,0l-0,-3.3c-9.3,-6.3 -15.3,-14.1 -15.3,-27.3l-0,-84.3c16.5,-12.9 30.3,-18.3 39.9,-18c11.1,0.3 16.2,8.1 16.2,22.2l-0,80.1c-0,13.2 -5.1,21 -15,27.3l-0,3.3l60.9,0l-0,-3.3c-8.4,-4.2 -13.2,-14.1 -13.2,-27.3l-0,-93.3c-0,-20.1 -10.5,-33.9 -28.8,-33.9c-20.4,0 -45.9,18.9 -60,35.4l-0.6,-0.3c0.6,-3.9 0.6,-11.7 0.6,-18.6l-0,-17.7l-2.7,0c-10.8,10.5 -28.8,18.6 -45.9,20.7l-0,3c11.4,4.2 15.6,11.4 15.6,27.6l-0,77.1c-0,13.2 -6,22.5 -15.6,27.3Z" style="fill-rule:nonzero;"></path>
  <path d="M1120.09,84.318l-0,154.5c-0,13.8 -6.6,24.6 -18.9,29.4l-0,3c26.4,3.6 52.2,6 80.1,6c60.3,0 92.7,-26.1 92.7,-63.6c-0,-37.8 -35.1,-59.4 -71.4,-65.7c29.1,-6 56.7,-24 56.7,-54.3c-0,-29.1 -30,-47.4 -82.5,-47.4c-26.1,0 -50.7,2.4 -75.6,6l-0,3c12.3,5.1 18.9,15.6 18.9,29.1Zm61.8,-27.6c23.7,0 40.8,15.6 40.8,41.4c-0,27.9 -18,44.4 -47.7,44.4l-19.8,0l-0,-61.2c-0,-16.2 9,-24.6 26.7,-24.6Zm-26.7,185.4l-0,-88.5l19.8,0c37.8,0 59.4,20.1 59.4,55.8c-0,35.4 -19.5,57.6 -49.2,57.6c-19.5,0 -30,-8.4 -30,-24.9Z" style="fill-rule:nonzero;"></path>
  <path d="M1294.69,197.118c-0,45 31.2,81.6 69,81.6c38.1,0 69.6,-36.3 69.6,-81.6c-0,-45 -30.3,-80.7 -69.6,-80.7c-38.7,0 -69,36 -69,80.7Zm36,0c-0,-41.4 11.1,-70.5 33,-70.5c22.8,0 33.6,29.1 33.6,70.5c-0,41.4 -11.7,71.4 -33.6,71.4c-21.3,0 -33,-30 -33,-71.4Z" style="fill-rule:nonzero;"></path>
  <path d="M1504.39,278.718c19.2,0 36.6,-14.7 47.1,-27.9l0.3,0c-0,3.9 -0.3,9.6 -0.3,14.7l-0,14.1l2.7,0c13.2,-8.1 28.5,-14.1 44.7,-15.9l-0,-2.7c-10.2,-3.9 -14.7,-13.2 -14.7,-29.1l-0,-195.9l-2.7,0c-11.1,10.5 -29.4,18.6 -46.8,20.7l-0,3c10.2,3.9 16.5,13.5 16.5,28.2l-0,34.5c-6.6,-2.4 -14.1,-4.2 -22.8,-4.2c-45.3,0 -75.3,42.9 -75.3,91.8c-0,39.3 23.7,68.7 51.3,68.7Zm18.9,-23.4c-21.9,0 -35.4,-21.9 -35.4,-58.2c-0.3,-38.4 16.5,-69.3 41.1,-69.3c13.8,0 22.2,10.5 22.2,26.1l-0,88.2c-9,8.7 -18,13.2 -27.9,13.2Z" style="fill-rule:nonzero;"></path>
  <path d="M1625.29,338.418c22.2,0 36.9,-17.7 49.8,-48.9l54.9,-133.8c5.7,-13.2 14.1,-28.2 22.2,-32.1l-0,-2.7l-44.7,0l-0,2.7c9.6,4.5 15.6,16.8 9.3,32.1l-27.6,69.9l-28.8,-69.9c-6.6,-16.2 -1.5,-26.4 9.9,-32.1l-0,-2.7l-68.7,0l-0,2.7c8.7,4.5 14.4,13.5 22.2,32.1l48,113.4l-6.3,15.6c-6.3,16.2 -14.1,32.4 -25.8,32.7c-10.2,0 -11.1,-18.9 -25.8,-18.9c-8.4,0 -16.2,6.9 -16.2,17.7c-0,13.2 13.5,22.2 27.6,22.2Z" style="fill-rule:nonzero;"></path>
  <path d="M582.666,346.529l6.532,-0l0,-33.778c0,-0.673 -0.032,-1.428 -0.097,-2.266c-0.066,-0.837 -0.131,-1.592 -0.196,-2.265l0.386,0c0.108,0.673 0.293,1.428 0.553,2.265c0.261,0.838 0.519,1.593 0.776,2.266l13.373,33.778l6.337,-0l13.086,-33.751c0.257,-0.673 0.527,-1.429 0.811,-2.268c0.284,-0.84 0.533,-1.594 0.746,-2.263l0.352,0c-0.083,0.669 -0.14,1.423 -0.173,2.263c-0.033,0.839 -0.049,1.595 -0.049,2.268l0,33.751l7.324,-0l0,-47.396l-10.373,-0l-12.885,33.322c-0.257,0.669 -0.516,1.364 -0.779,2.083c-0.262,0.72 -0.5,1.416 -0.713,2.089l-0.282,0c-0.231,-0.673 -0.484,-1.369 -0.757,-2.089c-0.273,-0.719 -0.54,-1.414 -0.8,-2.083l-13.205,-33.322l-9.967,-0l0,47.396Z" style="fill-rule:nonzero;"></path>
  <path d="M642.168,329.238c-0,5.378 1.63,9.768 4.891,13.167c3.26,3.4 7.61,5.1 13.05,5.1c5.433,0 9.78,-1.7 13.04,-5.1c3.261,-3.399 4.891,-7.789 4.891,-13.167l0,-1.042c0,-5.358 -1.629,-9.738 -4.889,-13.139c-3.259,-3.4 -7.612,-5.101 -13.058,-5.101c-5.429,0 -9.774,1.701 -13.034,5.101c-3.261,3.401 -4.891,7.781 -4.891,13.139l-0,1.042Zm7.432,-1.042c0,-3.483 0.882,-6.431 2.645,-8.843c1.763,-2.413 4.382,-3.619 7.857,-3.619c3.467,0 6.085,1.206 7.853,3.619c1.768,2.412 2.652,5.358 2.652,8.838l0,1.047c0,3.503 -0.884,6.461 -2.652,8.872c-1.768,2.411 -4.386,3.617 -7.853,3.617c-3.475,0 -6.094,-1.204 -7.857,-3.613c-1.763,-2.409 -2.645,-5.364 -2.645,-8.864l0,-1.054Z" style="fill-rule:nonzero;"></path>
  <path d="M680.64,310.933l13.992,35.596l6.185,-0l14.009,-35.596l-6.918,-0l-8.474,22.998c-0.326,0.886 -0.603,1.689 -0.83,2.409c-0.228,0.72 -0.413,1.523 -0.554,2.409l-0.195,-0c-0.141,-0.876 -0.321,-1.675 -0.54,-2.398c-0.219,-0.724 -0.491,-1.53 -0.817,-2.42l-8.572,-22.998l-7.286,-0Z" style="fill-rule:nonzero;"></path>
  <path d="M717.751,329.238c-0,5.378 1.565,9.768 4.696,13.167c3.13,3.4 7.627,5.1 13.49,5.1c3.584,0 6.644,-0.695 9.18,-2.086c2.535,-1.391 4.374,-2.923 5.517,-4.598l-4.709,-3.814c-1.016,1.32 -2.358,2.458 -4.026,3.415c-1.667,0.957 -3.653,1.435 -5.957,1.435c-3.703,0 -6.445,-1.219 -8.225,-3.656c-1.779,-2.438 -2.669,-5.426 -2.669,-8.963l0,-1.042c0,-3.537 0.845,-6.521 2.534,-8.952c1.689,-2.43 4.116,-3.646 7.281,-3.646c3.255,0 5.557,0.929 6.906,2.786c1.349,1.858 2.029,4.076 2.04,6.655l0.005,0.038l-21.348,-0l-0,5.458l28.673,-0l-0,-2.925c-0,-5.403 -1.402,-9.697 -4.205,-12.88c-2.803,-3.182 -6.807,-4.774 -12.012,-4.774c-5.15,0 -9.3,1.7 -12.448,5.1c-3.149,3.4 -4.723,7.78 -4.723,13.14l-0,1.042Z" style="fill-rule:nonzero;"></path>
  <path d="M759.208,346.529l7.248,-0l0,-24.55c0.901,-1.707 2.086,-3.102 3.556,-4.183c1.471,-1.082 3.195,-1.622 5.173,-1.622c2.286,-0 4.053,0.623 5.301,1.869c1.248,1.246 1.874,3.315 1.877,6.209l-0,22.277l7.276,-0l-0,-24.55c0.9,-1.707 2.088,-3.102 3.561,-4.183c1.474,-1.082 3.2,-1.622 5.179,-1.622c2.282,-0 4.042,0.623 5.279,1.869c1.237,1.246 1.866,3.315 1.888,6.209l-0,22.277l7.248,-0l0,-22.212c0,-5.042 -1.114,-8.642 -3.342,-10.799c-2.228,-2.158 -5.273,-3.236 -9.136,-3.236c-2.482,-0 -4.724,0.482 -6.728,1.446c-2.003,0.963 -3.776,2.512 -5.316,4.647l-0.147,-0c-0.933,-2.091 -2.317,-3.629 -4.153,-4.615c-1.836,-0.985 -4.027,-1.478 -6.573,-1.478c-2.289,-0 -4.374,0.455 -6.253,1.364c-1.879,0.91 -3.485,2.205 -4.82,3.887l-0.163,0l-0.282,-4.6l-6.673,-0l-0,35.596Z" style="fill-rule:nonzero;"></path>
  <path d="M818.589,329.238c0,5.378 1.566,9.768 4.696,13.167c3.131,3.4 7.627,5.1 13.49,5.1c3.585,0 6.645,-0.695 9.18,-2.086c2.536,-1.391 4.375,-2.923 5.518,-4.598l-4.71,-3.814c-1.016,1.32 -2.358,2.458 -4.025,3.415c-1.668,0.957 -3.653,1.435 -5.957,1.435c-3.704,0 -6.445,-1.219 -8.225,-3.656c-1.78,-2.438 -2.669,-5.426 -2.669,-8.963l-0,-1.042c-0,-3.537 0.844,-6.521 2.533,-8.952c1.69,-2.43 4.117,-3.646 7.281,-3.646c3.255,0 5.558,0.929 6.907,2.786c1.349,1.858 2.029,4.076 2.039,6.655l0.006,0.038l-21.349,-0l0,5.458l28.673,-0l0,-2.925c0,-5.403 -1.401,-9.697 -4.204,-12.88c-2.803,-3.182 -6.807,-4.774 -12.012,-4.774c-5.151,0 -9.3,1.7 -12.449,5.1c-3.148,3.4 -4.723,7.78 -4.723,13.14l0,1.042Z" style="fill-rule:nonzero;"></path>
  <path d="M860.046,346.529l7.249,-0l-0,-24.555c0.9,-1.708 2.124,-3.101 3.67,-4.181c1.546,-1.079 3.341,-1.619 5.384,-1.619c2.395,-0 4.243,0.618 5.545,1.855c1.302,1.237 1.953,3.301 1.953,6.191l0,22.309l7.27,-0l0,-22.239c0,-5.06 -1.136,-8.66 -3.41,-10.799c-2.273,-2.14 -5.323,-3.209 -9.149,-3.209c-2.359,-0 -4.51,0.451 -6.454,1.353c-1.944,0.903 -3.59,2.201 -4.94,3.893l-0.162,0l-0.283,-4.595l-6.673,-0l0,35.596Z" style="fill-rule:nonzero;"></path>
  <path d="M896.289,316.385l21.425,0l-0,-5.452l-21.425,-0l0,5.452Zm6.402,20.975c0,3.498 0.861,6.064 2.582,7.696c1.722,1.633 4.022,2.449 6.901,2.449c1.109,0 2.129,-0.098 3.062,-0.293c0.932,-0.195 1.693,-0.423 2.283,-0.683l-0,-5.654c-0.619,0.214 -1.231,0.387 -1.839,0.518c-0.607,0.132 -1.224,0.198 -1.849,0.198c-1.332,0 -2.314,-0.325 -2.945,-0.976c-0.631,-0.651 -0.947,-1.736 -0.947,-3.255l0,-33.54l-7.248,0l0,33.54Z" style="fill-rule:nonzero;"></path>
  <path d="M947.247,346.529l15.495,-0c6.559,-0 12.027,-2.023 16.404,-6.067c4.378,-4.044 6.567,-9.476 6.567,-16.297l0,-2.669c0,-6.82 -2.189,-12.253 -6.567,-16.297c-4.377,-4.044 -9.845,-6.066 -16.404,-6.066l-15.495,-0l0,47.396Zm7.487,-5.925l0,-35.547l8.008,0c4.681,0 8.413,1.454 11.196,4.361c2.782,2.907 4.174,6.933 4.174,12.078l-0,2.669c-0,5.145 -1.392,9.171 -4.174,12.078c-2.783,2.907 -6.515,4.361 -11.196,4.361l-8.008,0Z" style="fill-rule:nonzero;"></path>
  <path d="M993.082,329.238c-0,5.378 1.565,9.768 4.695,13.167c3.131,3.4 7.627,5.1 13.491,5.1c3.584,0 6.644,-0.695 9.18,-2.086c2.535,-1.391 4.374,-2.923 5.517,-4.598l-4.71,-3.814c-1.016,1.32 -2.358,2.458 -4.025,3.415c-1.667,0.957 -3.653,1.435 -5.957,1.435c-3.704,0 -6.445,-1.219 -8.225,-3.656c-1.779,-2.438 -2.669,-5.426 -2.669,-8.963l-0,-1.042c-0,-3.537 0.844,-6.521 2.534,-8.952c1.689,-2.43 4.116,-3.646 7.28,-3.646c3.256,0 5.558,0.929 6.907,2.786c1.349,1.858 2.029,4.076 2.04,6.655l0.005,0.038l-21.348,-0l-0,5.458l28.672,-0l0,-2.925c0,-5.403 -1.401,-9.697 -4.204,-12.88c-2.803,-3.182 -6.807,-4.774 -12.012,-4.774c-5.15,0 -9.3,1.7 -12.448,5.1c-3.149,3.4 -4.723,7.78 -4.723,13.14l-0,1.042Z" style="fill-rule:nonzero;"></path>
  <path d="M1032.33,335.917l-0,0.233c-0,3.421 1.337,6.169 4.01,8.244c2.674,2.074 6.556,3.111 11.646,3.111c5.104,0 8.938,-1.025 11.501,-3.075c2.562,-2.05 3.844,-4.679 3.844,-7.888c-0,-3.104 -1.063,-5.534 -3.188,-7.291c-2.125,-1.756 -5.303,-3.035 -9.535,-3.838c-4.322,-0.817 -7.051,-1.618 -8.187,-2.401c-1.136,-0.784 -1.703,-1.831 -1.703,-3.144c-0,-1.265 0.558,-2.332 1.676,-3.2c1.118,-0.868 2.941,-1.303 5.469,-1.303c2.536,0 4.41,0.501 5.621,1.503c1.211,1.002 1.817,2.357 1.817,4.064l-0,0.217l7.216,-0l-0,-0.245c-0,-3.273 -1.323,-5.918 -3.969,-7.937c-2.646,-2.018 -6.204,-3.027 -10.674,-3.027c-4.406,-0 -7.903,0.983 -10.49,2.949c-2.588,1.966 -3.882,4.441 -3.882,7.425c-0,2.922 1.073,5.248 3.22,6.979c2.146,1.73 5.337,2.997 9.573,3.8c4.235,0.803 6.916,1.605 8.043,2.405c1.126,0.8 1.69,1.961 1.69,3.482c-0,1.519 -0.698,2.743 -2.094,3.673c-1.397,0.929 -3.381,1.394 -5.953,1.394c-2.528,0 -4.561,-0.5 -6.098,-1.5c-1.536,-1 -2.307,-2.462 -2.31,-4.386l-0,-0.244l-7.243,-0Z" style="fill-rule:nonzero;"></path>
  <path d="M1071.7,346.529l7.244,-0l-0,-35.596l-7.244,-0l0,35.596Zm-0.651,-45.484c0,1.145 0.37,2.105 1.108,2.878c0.738,0.774 1.793,1.161 3.164,1.161c1.374,0 2.429,-0.385 3.165,-1.156c0.735,-0.771 1.103,-1.726 1.103,-2.865c0,-1.136 -0.368,-2.091 -1.104,-2.864c-0.736,-0.774 -1.791,-1.16 -3.164,-1.16c-1.374,-0 -2.429,0.384 -3.166,1.153c-0.737,0.769 -1.106,1.72 -1.106,2.853Z" style="fill-rule:nonzero;"></path>
  <path d="M1091.25,355.763c1.789,1.432 4.005,2.616 6.648,3.553c2.644,0.937 5.525,1.405 8.643,1.405c5.057,0 9.166,-1.329 12.328,-3.987c3.162,-2.659 4.743,-6.469 4.743,-11.432l-0,-34.369l-6.673,-0l-0.288,4.525l-0.157,-0c-0.928,-1.438 -2.371,-2.66 -4.331,-3.666c-1.959,-1.007 -4.239,-1.51 -6.84,-1.51c-4.751,-0 -8.552,1.69 -11.403,5.07c-2.851,3.38 -4.276,7.662 -4.276,12.844l-0,1.042c-0,5.192 1.425,9.48 4.276,12.865c2.851,3.384 6.652,5.077 11.403,5.077c2.601,-0 4.822,-0.428 6.663,-1.283c1.84,-0.856 3.3,-2.012 4.378,-3.47l-0,2.875c-0,2.996 -0.897,5.319 -2.692,6.97c-1.794,1.651 -4.244,2.476 -7.351,2.476c-2.445,-0 -4.662,-0.425 -6.651,-1.275c-1.99,-0.85 -3.55,-1.837 -4.682,-2.962l-3.738,5.252Zm5.826,-26.513l0,-1.054c0,-3.41 0.803,-6.286 2.407,-8.626c1.605,-2.34 4.121,-3.51 7.549,-3.51c2.292,-0 4.242,0.598 5.849,1.794c1.607,1.196 2.768,2.564 3.483,4.103l-0,13.547c-0.715,1.532 -1.876,2.898 -3.483,4.098c-1.607,1.2 -3.557,1.8 -5.849,1.8c-3.428,-0 -5.944,-1.169 -7.549,-3.505c-1.604,-2.337 -2.407,-5.219 -2.407,-8.647Z" style="fill-rule:nonzero;"></path>
  <path d="M1133.78,346.529l7.248,-0l0,-24.555c0.901,-1.708 2.124,-3.101 3.671,-4.181c1.546,-1.079 3.341,-1.619 5.384,-1.619c2.395,-0 4.243,0.618 5.545,1.855c1.302,1.237 1.953,3.301 1.953,6.191l0,22.309l7.27,-0l-0,-22.239c-0,-5.06 -1.137,-8.66 -3.41,-10.799c-2.273,-2.14 -5.323,-3.209 -9.15,-3.209c-2.358,-0 -4.509,0.451 -6.453,1.353c-1.944,0.903 -3.591,2.201 -4.94,3.893l-0.163,0l-0.282,-4.595l-6.673,-0l0,35.596Z" style="fill-rule:nonzero;"></path>
  <path d="M1172.78,329.238c0,5.378 1.565,9.768 4.696,13.167c3.13,3.4 7.627,5.1 13.49,5.1c3.585,0 6.645,-0.695 9.18,-2.086c2.536,-1.391 4.375,-2.923 5.517,-4.598l-4.709,-3.814c-1.016,1.32 -2.358,2.458 -4.026,3.415c-1.667,0.957 -3.653,1.435 -5.956,1.435c-3.704,0 -6.446,-1.219 -8.225,-3.656c-1.78,-2.438 -2.67,-5.426 -2.67,-8.963l0,-1.042c0,-3.537 0.845,-6.521 2.534,-8.952c1.689,-2.43 4.116,-3.646 7.281,-3.646c3.255,0 5.557,0.929 6.906,2.786c1.349,1.858 2.029,4.076 2.04,6.655l0.006,0.038l-21.349,-0l0,5.458l28.673,-0l-0,-2.925c-0,-5.403 -1.402,-9.697 -4.205,-12.88c-2.803,-3.182 -6.807,-4.774 -12.012,-4.774c-5.15,0 -9.299,1.7 -12.448,5.1c-3.149,3.4 -4.723,7.78 -4.723,13.14l0,1.042Z" style="fill-rule:nonzero;"></path>
  <path d="M1212.19,329.238c-0,5.192 1.424,9.48 4.274,12.865c2.849,3.384 6.654,5.077 11.416,5.077c2.597,-0 4.874,-0.504 6.832,-1.51c1.958,-1.007 3.4,-2.229 4.328,-3.666l0.157,-0l0.274,4.525l6.687,-0l-0,-50l-7.249,-0l0,18.505c-1.078,-1.45 -2.536,-2.605 -4.375,-3.464c-1.838,-0.859 -4.056,-1.288 -6.654,-1.288c-4.751,-0 -8.553,1.69 -11.408,5.07c-2.855,3.38 -4.282,7.662 -4.282,12.844l-0,1.042Zm7.432,0.012l0,-1.054c0,-3.418 0.804,-6.295 2.412,-8.632c1.609,-2.336 4.123,-3.504 7.544,-3.504c2.296,-0 4.246,0.598 5.852,1.794c1.605,1.196 2.765,2.564 3.479,4.103l0,13.547c-0.714,1.532 -1.875,2.898 -3.482,4.098c-1.607,1.2 -3.557,1.8 -5.849,1.8c-3.421,-0 -5.935,-1.167 -7.544,-3.5c-1.608,-2.333 -2.412,-5.217 -2.412,-8.652Z" style="fill-rule:nonzero;"></path>
  <path d="M1278.46,346.529l7.275,-0l0,-38.157c0,-2.232 0.558,-3.905 1.674,-5.021c1.116,-1.116 2.696,-1.674 4.739,-1.674c0.592,0 1.168,0.033 1.728,0.098c0.56,0.065 1.089,0.143 1.585,0.233l0.333,-5.604c-0.678,-0.177 -1.388,-0.31 -2.13,-0.396c-0.743,-0.087 -1.471,-0.131 -2.183,-0.131c-4.022,0 -7.197,1.065 -9.527,3.194c-2.329,2.129 -3.494,5.229 -3.494,9.301l-0,38.157Zm-5.849,-30.144l20.877,0l-0,-5.452l-20.877,-0l0,5.452Z" style="fill-rule:nonzero;"></path>
  <path d="M1298.09,329.238c-0,5.378 1.63,9.768 4.891,13.167c3.261,3.4 7.611,5.1 13.05,5.1c5.433,0 9.78,-1.7 13.04,-5.1c3.261,-3.399 4.891,-7.789 4.891,-13.167l0,-1.042c0,-5.358 -1.629,-9.738 -4.888,-13.139c-3.259,-3.4 -7.612,-5.101 -13.059,-5.101c-5.429,0 -9.773,1.701 -13.034,5.101c-3.261,3.401 -4.891,7.781 -4.891,13.139l-0,1.042Zm7.433,-1.042c-0,-3.483 0.881,-6.431 2.644,-8.843c1.764,-2.413 4.383,-3.619 7.857,-3.619c3.467,0 6.085,1.206 7.853,3.619c1.768,2.412 2.652,5.358 2.652,8.838l0,1.047c0,3.503 -0.884,6.461 -2.652,8.872c-1.768,2.411 -4.386,3.617 -7.853,3.617c-3.474,0 -6.093,-1.204 -7.857,-3.613c-1.763,-2.409 -2.644,-5.364 -2.644,-8.864l-0,-1.054Z" style="fill-rule:nonzero;"></path>
  <path d="M1341.96,346.529l7.248,-0l0,-24.366c0.705,-1.53 1.779,-2.814 3.222,-3.852c1.443,-1.038 3.192,-1.557 5.248,-1.557c0.6,0 1.146,0.022 1.639,0.065c0.494,0.044 0.963,0.111 1.409,0.201l-0,-6.595c-0.217,-0.095 -0.595,-0.197 -1.132,-0.306c-0.538,-0.108 -1.056,-0.163 -1.554,-0.163c-2.065,0 -3.845,0.544 -5.341,1.632c-1.495,1.088 -2.702,2.358 -3.621,3.81l-0.163,0l-0.269,-4.465l-6.686,-0l-0,35.596Z" style="fill-rule:nonzero;"></path>
  <path d="M1389.74,346.529l31.12,-0l-0,-5.925l-23.633,0l-0,-41.471l-7.487,-0l-0,47.396Z" style="fill-rule:nonzero;"></path>
  <path d="M1429.31,346.529l7.244,-0l-0,-35.596l-7.244,-0l0,35.596Zm-0.651,-45.484c0,1.145 0.369,2.105 1.108,2.878c0.738,0.774 1.793,1.161 3.164,1.161c1.374,0 2.429,-0.385 3.165,-1.156c0.735,-0.771 1.103,-1.726 1.103,-2.865c-0,-1.136 -0.368,-2.091 -1.104,-2.864c-0.736,-0.774 -1.791,-1.16 -3.164,-1.16c-1.374,-0 -2.429,0.384 -3.166,1.153c-0.737,0.769 -1.106,1.72 -1.106,2.853Z" style="fill-rule:nonzero;"></path>
  <path d="M1444.39,310.933l13.992,35.596l6.185,-0l14.008,-35.596l-6.917,-0l-8.475,22.998c-0.325,0.886 -0.602,1.689 -0.83,2.409c-0.228,0.72 -0.412,1.523 -0.553,2.409l-0.195,-0c-0.142,-0.876 -0.321,-1.675 -0.54,-2.398c-0.219,-0.724 -0.491,-1.53 -0.817,-2.42l-8.572,-22.998l-7.286,-0Z" style="fill-rule:nonzero;"></path>
  <path d="M1484.25,346.529l7.244,-0l-0,-35.596l-7.244,-0l0,35.596Zm-0.651,-45.484c0,1.145 0.369,2.105 1.108,2.878c0.738,0.774 1.793,1.161 3.164,1.161c1.374,0 2.429,-0.385 3.165,-1.156c0.735,-0.771 1.103,-1.726 1.103,-2.865c0,-1.136 -0.368,-2.091 -1.104,-2.864c-0.736,-0.774 -1.791,-1.16 -3.164,-1.16c-1.374,-0 -2.429,0.384 -3.166,1.153c-0.737,0.769 -1.106,1.72 -1.106,2.853Z" style="fill-rule:nonzero;"></path>
  <path d="M1504.24,346.529l7.248,-0l0,-24.555c0.901,-1.708 2.124,-3.101 3.671,-4.181c1.546,-1.079 3.341,-1.619 5.384,-1.619c2.395,-0 4.243,0.618 5.545,1.855c1.302,1.237 1.953,3.301 1.953,6.191l0,22.309l7.27,-0l-0,-22.239c-0,-5.06 -1.137,-8.66 -3.41,-10.799c-2.273,-2.14 -5.323,-3.209 -9.15,-3.209c-2.358,-0 -4.509,0.451 -6.453,1.353c-1.944,0.903 -3.591,2.201 -4.94,3.893l-0.163,0l-0.282,-4.595l-6.673,-0l-0,35.596Z" style="fill-rule:nonzero;"></path>
  <path d="M1544.84,355.763c1.789,1.432 4.005,2.616 6.649,3.553c2.643,0.937 5.524,1.405 8.643,1.405c5.056,0 9.165,-1.329 12.327,-3.987c3.162,-2.659 4.743,-6.469 4.743,-11.432l0,-34.369l-6.673,-0l-0.288,4.525l-0.157,-0c-0.927,-1.438 -2.371,-2.66 -4.331,-3.666c-1.959,-1.007 -4.239,-1.51 -6.84,-1.51c-4.751,-0 -8.551,1.69 -11.402,5.07c-2.851,3.38 -4.277,7.662 -4.277,12.844l0,1.042c0,5.192 1.426,9.48 4.277,12.865c2.851,3.384 6.651,5.077 11.402,5.077c2.601,-0 4.822,-0.428 6.663,-1.283c1.841,-0.856 3.3,-2.012 4.378,-3.47l-0,2.875c-0,2.996 -0.897,5.319 -2.691,6.97c-1.795,1.651 -4.245,2.476 -7.352,2.476c-2.445,-0 -4.662,-0.425 -6.651,-1.275c-1.989,-0.85 -3.55,-1.837 -4.682,-2.962l-3.738,5.252Zm5.827,-26.513l-0,-1.054c-0,-3.41 0.802,-6.286 2.406,-8.626c1.605,-2.34 4.121,-3.51 7.549,-3.51c2.292,-0 4.242,0.598 5.849,1.794c1.607,1.196 2.768,2.564 3.483,4.103l-0,13.547c-0.715,1.532 -1.876,2.898 -3.483,4.098c-1.607,1.2 -3.557,1.8 -5.849,1.8c-3.428,-0 -5.944,-1.169 -7.549,-3.505c-1.604,-2.337 -2.406,-5.219 -2.406,-8.647Z" style="fill-rule:nonzero;"></path>
</svg>
