<?xml version="1.0" encoding="UTF-8" standalone="no"?>
<svg xmlns="http://www.w3.org/2000/svg" xmlns:xlink="http://www.w3.org/1999/xlink" xmlns:serif="http://www.serif.com/" width="100%" height="100%" viewBox="0 0 1889 532" version="1.1" xml:space="preserve" style="fill-rule:evenodd;clip-rule:evenodd;stroke-linejoin:round;stroke-miterlimit:2;">
    <g transform="matrix(1,0,0,1,-211.323,-384.424)">
        <rect id="Artboard1" x="211.323" y="384.424" width="1888.66" height="531.2" style="fill:none;"></rect>
        <g id="Artboard11" serif:id="Artboard1">
            <g transform="matrix(1,0,0,1,-406.661,-723.279)">
                <g transform="matrix(350,0,0,350,616.243,1418.81)">
                    <path d="M0.294,-0.75L0.455,-0.204L0.428,-0.195L0.607,-0.75L0.792,-0.75L0.792,-0.74C0.772,-0.732 0.756,-0.719 0.746,-0.701C0.736,-0.683 0.732,-0.663 0.735,-0.64L0.804,-0.097C0.807,-0.076 0.814,-0.058 0.826,-0.044C0.837,-0.03 0.852,-0.018 0.868,-0.011L0.868,-0L0.634,-0L0.634,-0.011C0.651,-0.018 0.665,-0.03 0.675,-0.044C0.686,-0.058 0.69,-0.076 0.687,-0.096L0.612,-0.686L0.63,-0.686L0.409,0.01L0.395,0.01L0.189,-0.692L0.207,-0.691L0.131,-0.115C0.128,-0.09 0.131,-0.069 0.141,-0.05C0.151,-0.031 0.165,-0.018 0.183,-0.011L0.183,-0L0.021,-0L0.021,-0.011C0.039,-0.019 0.054,-0.032 0.066,-0.051C0.078,-0.069 0.085,-0.09 0.089,-0.115L0.159,-0.641C0.162,-0.663 0.158,-0.684 0.147,-0.702C0.136,-0.72 0.121,-0.732 0.101,-0.74L0.101,-0.75L0.294,-0.75Z" style="fill-rule:nonzero;"></path>
                </g>
                <g transform="matrix(350,0,0,350,890.643,1418.81)">
                    <path d="M0.033,-0.257C0.033,-0.295 0.039,-0.329 0.051,-0.362C0.062,-0.394 0.079,-0.423 0.1,-0.447C0.121,-0.472 0.145,-0.491 0.173,-0.505C0.201,-0.519 0.231,-0.526 0.264,-0.526C0.296,-0.526 0.326,-0.519 0.354,-0.505C0.382,-0.491 0.407,-0.472 0.428,-0.448C0.449,-0.423 0.465,-0.395 0.477,-0.362C0.489,-0.329 0.494,-0.294 0.494,-0.257C0.494,-0.219 0.488,-0.184 0.476,-0.151C0.464,-0.118 0.448,-0.089 0.426,-0.064C0.405,-0.039 0.381,-0.02 0.353,-0.006C0.325,0.008 0.295,0.015 0.263,0.015C0.232,0.015 0.202,0.008 0.174,-0.006C0.146,-0.02 0.122,-0.04 0.101,-0.065C0.079,-0.09 0.063,-0.119 0.051,-0.151C0.039,-0.184 0.033,-0.219 0.033,-0.257ZM0.153,-0.257C0.153,-0.211 0.157,-0.17 0.165,-0.134C0.174,-0.098 0.186,-0.07 0.203,-0.05C0.219,-0.029 0.24,-0.019 0.264,-0.019C0.288,-0.019 0.308,-0.029 0.325,-0.05C0.341,-0.07 0.354,-0.098 0.362,-0.134C0.371,-0.17 0.375,-0.211 0.375,-0.257C0.375,-0.303 0.371,-0.344 0.363,-0.379C0.355,-0.414 0.342,-0.442 0.326,-0.462C0.31,-0.482 0.289,-0.492 0.263,-0.492C0.239,-0.492 0.218,-0.482 0.202,-0.462C0.185,-0.442 0.173,-0.414 0.165,-0.379C0.157,-0.344 0.153,-0.303 0.153,-0.257Z" style="fill-rule:nonzero;"></path>
                </g>
                <g transform="matrix(350,0,0,350,1063.89,1418.81)">
                    <path d="M0.205,0.015C0.174,0.015 0.146,0.005 0.12,-0.015C0.094,-0.035 0.074,-0.063 0.058,-0.097C0.042,-0.132 0.034,-0.171 0.034,-0.214C0.034,-0.255 0.04,-0.294 0.052,-0.331C0.064,-0.367 0.081,-0.4 0.103,-0.428C0.125,-0.457 0.152,-0.479 0.183,-0.496C0.213,-0.512 0.248,-0.52 0.285,-0.52C0.3,-0.52 0.313,-0.519 0.326,-0.516C0.338,-0.514 0.35,-0.51 0.362,-0.506L0.362,-0.62C0.362,-0.645 0.357,-0.665 0.347,-0.681C0.336,-0.697 0.323,-0.708 0.306,-0.715L0.306,-0.725C0.325,-0.728 0.345,-0.732 0.364,-0.738C0.383,-0.744 0.401,-0.752 0.418,-0.762C0.435,-0.772 0.45,-0.783 0.462,-0.794L0.471,-0.794L0.471,-0.141C0.471,-0.114 0.475,-0.093 0.483,-0.077C0.49,-0.061 0.503,-0.05 0.52,-0.043L0.52,-0.035C0.493,-0.032 0.467,-0.025 0.442,-0.016C0.417,-0.007 0.393,0.005 0.371,0.019L0.362,0.019L0.362,-0.029C0.362,-0.037 0.362,-0.046 0.362,-0.055C0.363,-0.064 0.363,-0.071 0.364,-0.077L0.362,-0.078C0.35,-0.064 0.336,-0.049 0.32,-0.035C0.303,-0.021 0.286,-0.009 0.266,0.001C0.247,0.01 0.227,0.015 0.205,0.015ZM0.269,-0.063C0.285,-0.063 0.301,-0.067 0.316,-0.074C0.332,-0.082 0.347,-0.093 0.362,-0.107L0.362,-0.401C0.362,-0.427 0.355,-0.448 0.342,-0.464C0.328,-0.48 0.31,-0.488 0.287,-0.488C0.26,-0.488 0.236,-0.478 0.215,-0.457C0.194,-0.436 0.178,-0.408 0.167,-0.373C0.155,-0.339 0.149,-0.3 0.15,-0.257C0.15,-0.197 0.161,-0.149 0.182,-0.115C0.203,-0.08 0.232,-0.063 0.269,-0.063Z" style="fill-rule:nonzero;"></path>
                </g>
                <g transform="matrix(350,0,0,350,1241.34,1418.81)">
                    <path d="M0.137,-0.293C0.137,-0.245 0.144,-0.204 0.158,-0.171C0.171,-0.137 0.19,-0.112 0.214,-0.095C0.237,-0.077 0.264,-0.068 0.295,-0.068C0.323,-0.068 0.348,-0.075 0.372,-0.089C0.395,-0.102 0.414,-0.122 0.428,-0.146L0.439,-0.141C0.43,-0.108 0.416,-0.08 0.396,-0.057C0.376,-0.033 0.353,-0.016 0.327,-0.003C0.302,0.009 0.275,0.015 0.246,0.015C0.22,0.015 0.194,0.01 0.168,-0.001C0.143,-0.012 0.12,-0.028 0.1,-0.049C0.08,-0.071 0.064,-0.097 0.052,-0.129C0.04,-0.16 0.034,-0.196 0.034,-0.238C0.034,-0.277 0.039,-0.314 0.051,-0.349C0.062,-0.384 0.078,-0.415 0.099,-0.441C0.12,-0.468 0.144,-0.489 0.172,-0.504C0.199,-0.519 0.23,-0.526 0.262,-0.526C0.297,-0.526 0.329,-0.517 0.356,-0.5C0.383,-0.482 0.405,-0.458 0.421,-0.427C0.437,-0.395 0.445,-0.36 0.445,-0.319L0.445,-0.297L0.083,-0.297L0.083,-0.332L0.331,-0.332C0.331,-0.363 0.327,-0.391 0.32,-0.414C0.312,-0.438 0.302,-0.456 0.288,-0.469C0.275,-0.482 0.259,-0.488 0.241,-0.488C0.223,-0.488 0.206,-0.481 0.19,-0.467C0.174,-0.453 0.161,-0.432 0.152,-0.403C0.142,-0.375 0.137,-0.338 0.137,-0.293Z" style="fill-rule:nonzero;"></path>
                </g>
                <g transform="matrix(350,0,0,350,1393.59,1418.81)">
                    <path d="M0.192,-0.47C0.192,-0.461 0.192,-0.451 0.191,-0.442C0.191,-0.433 0.19,-0.425 0.19,-0.42L0.192,-0.419C0.201,-0.437 0.212,-0.454 0.226,-0.47C0.239,-0.487 0.254,-0.5 0.271,-0.51C0.288,-0.521 0.304,-0.526 0.32,-0.526C0.338,-0.526 0.353,-0.519 0.366,-0.506C0.379,-0.493 0.385,-0.477 0.385,-0.457C0.385,-0.437 0.38,-0.422 0.369,-0.41C0.357,-0.399 0.345,-0.393 0.331,-0.393C0.321,-0.393 0.313,-0.395 0.306,-0.399C0.299,-0.404 0.292,-0.409 0.286,-0.414C0.28,-0.419 0.274,-0.424 0.268,-0.429C0.261,-0.433 0.254,-0.435 0.246,-0.435C0.236,-0.435 0.227,-0.431 0.219,-0.424C0.211,-0.416 0.202,-0.406 0.192,-0.394L0.192,-0.102C0.192,-0.081 0.197,-0.063 0.206,-0.048C0.216,-0.032 0.229,-0.02 0.244,-0.01L0.244,-0L0.03,-0L0.03,-0.011C0.047,-0.019 0.06,-0.032 0.069,-0.047C0.078,-0.063 0.083,-0.081 0.083,-0.102L0.083,-0.358C0.083,-0.385 0.078,-0.406 0.07,-0.42C0.062,-0.434 0.048,-0.444 0.03,-0.45L0.03,-0.461C0.049,-0.464 0.068,-0.468 0.087,-0.474C0.106,-0.48 0.124,-0.488 0.14,-0.498C0.157,-0.508 0.171,-0.519 0.183,-0.53L0.192,-0.53L0.192,-0.47Z" style="fill-rule:nonzero;"></path>
                </g>
                <g transform="matrix(350,0,0,350,1525.19,1418.81)">
                    <path d="M0.03,-0.011C0.046,-0.019 0.059,-0.03 0.068,-0.046C0.078,-0.061 0.083,-0.08 0.083,-0.102L0.083,-0.358C0.083,-0.386 0.078,-0.406 0.07,-0.42C0.062,-0.434 0.049,-0.444 0.03,-0.451L0.03,-0.461C0.049,-0.464 0.068,-0.468 0.087,-0.474C0.106,-0.48 0.124,-0.488 0.14,-0.498C0.157,-0.508 0.171,-0.518 0.183,-0.53L0.192,-0.53L0.192,-0.471C0.192,-0.46 0.192,-0.448 0.192,-0.436C0.192,-0.425 0.191,-0.416 0.191,-0.409L0.192,-0.408C0.208,-0.426 0.227,-0.444 0.249,-0.462C0.272,-0.48 0.296,-0.496 0.321,-0.508C0.346,-0.52 0.369,-0.526 0.392,-0.526C0.422,-0.526 0.446,-0.516 0.463,-0.495C0.48,-0.474 0.488,-0.446 0.488,-0.413L0.488,-0.102C0.488,-0.08 0.492,-0.061 0.5,-0.045C0.507,-0.029 0.518,-0.018 0.532,-0.011L0.532,-0L0.329,-0L0.329,-0.011C0.345,-0.021 0.358,-0.034 0.366,-0.048C0.375,-0.062 0.379,-0.08 0.379,-0.102L0.379,-0.369C0.379,-0.392 0.374,-0.411 0.366,-0.423C0.357,-0.436 0.343,-0.443 0.325,-0.443C0.309,-0.444 0.29,-0.439 0.267,-0.43C0.244,-0.42 0.22,-0.405 0.192,-0.383L0.192,-0.102C0.192,-0.08 0.197,-0.062 0.206,-0.048C0.215,-0.034 0.227,-0.021 0.243,-0.011L0.243,-0L0.03,-0L0.03,-0.011Z" style="fill-rule:nonzero;"></path>
                </g>
                <g transform="matrix(350,0,0,350,1763.19,1418.81)">
                    <path d="M0.094,-0.633C0.094,-0.656 0.089,-0.675 0.078,-0.692C0.067,-0.709 0.051,-0.721 0.031,-0.73L0.031,-0.74C0.072,-0.746 0.114,-0.751 0.156,-0.754C0.197,-0.758 0.24,-0.76 0.283,-0.76C0.342,-0.76 0.392,-0.754 0.432,-0.741C0.473,-0.728 0.505,-0.709 0.526,-0.686C0.547,-0.662 0.558,-0.634 0.558,-0.602C0.558,-0.57 0.55,-0.542 0.534,-0.519C0.518,-0.496 0.497,-0.476 0.471,-0.46C0.445,-0.444 0.416,-0.433 0.385,-0.425C0.354,-0.417 0.323,-0.413 0.293,-0.413L0.146,-0.413L0.146,-0.439L0.277,-0.439C0.326,-0.439 0.365,-0.452 0.394,-0.478C0.422,-0.504 0.436,-0.54 0.436,-0.587C0.436,-0.616 0.43,-0.641 0.419,-0.661C0.407,-0.682 0.391,-0.697 0.37,-0.708C0.35,-0.719 0.326,-0.725 0.299,-0.725C0.27,-0.725 0.248,-0.718 0.233,-0.704C0.218,-0.69 0.211,-0.67 0.211,-0.643L0.211,-0.107C0.211,-0.08 0.219,-0.059 0.236,-0.045C0.253,-0.031 0.278,-0.024 0.311,-0.024C0.344,-0.024 0.373,-0.032 0.398,-0.047C0.422,-0.063 0.441,-0.085 0.455,-0.114C0.469,-0.143 0.475,-0.177 0.475,-0.216C0.475,-0.275 0.458,-0.321 0.424,-0.354C0.389,-0.386 0.34,-0.402 0.277,-0.402L0.146,-0.402L0.146,-0.428L0.293,-0.428C0.329,-0.428 0.365,-0.423 0.402,-0.414C0.438,-0.404 0.472,-0.39 0.504,-0.372C0.535,-0.353 0.56,-0.33 0.579,-0.301C0.598,-0.273 0.607,-0.24 0.607,-0.202C0.607,-0.161 0.595,-0.124 0.572,-0.092C0.548,-0.06 0.513,-0.035 0.467,-0.017C0.421,0.001 0.365,0.01 0.298,0.01C0.267,0.01 0.237,0.009 0.207,0.008C0.177,0.006 0.148,0.003 0.119,0C0.089,-0.003 0.06,-0.006 0.031,-0.01L0.031,-0.02C0.051,-0.028 0.067,-0.041 0.078,-0.058C0.089,-0.075 0.094,-0.095 0.094,-0.118L0.094,-0.633Z" style="fill-rule:nonzero;"></path>
                </g>
                <g transform="matrix(350,0,0,350,1973.19,1418.81)">
                    <path d="M0.033,-0.257C0.033,-0.295 0.039,-0.329 0.051,-0.362C0.062,-0.394 0.079,-0.423 0.1,-0.447C0.121,-0.472 0.145,-0.491 0.173,-0.505C0.201,-0.519 0.231,-0.526 0.264,-0.526C0.296,-0.526 0.326,-0.519 0.354,-0.505C0.382,-0.491 0.407,-0.472 0.428,-0.448C0.449,-0.423 0.465,-0.395 0.477,-0.362C0.489,-0.329 0.494,-0.294 0.494,-0.257C0.494,-0.219 0.488,-0.184 0.476,-0.151C0.464,-0.118 0.448,-0.089 0.426,-0.064C0.405,-0.039 0.381,-0.02 0.353,-0.006C0.325,0.008 0.295,0.015 0.263,0.015C0.232,0.015 0.202,0.008 0.174,-0.006C0.146,-0.02 0.122,-0.04 0.101,-0.065C0.079,-0.09 0.063,-0.119 0.051,-0.151C0.039,-0.184 0.033,-0.219 0.033,-0.257ZM0.153,-0.257C0.153,-0.211 0.157,-0.17 0.165,-0.134C0.174,-0.098 0.186,-0.07 0.203,-0.05C0.219,-0.029 0.24,-0.019 0.264,-0.019C0.288,-0.019 0.308,-0.029 0.325,-0.05C0.341,-0.07 0.354,-0.098 0.362,-0.134C0.371,-0.17 0.375,-0.211 0.375,-0.257C0.375,-0.303 0.371,-0.344 0.363,-0.379C0.355,-0.414 0.342,-0.442 0.326,-0.462C0.31,-0.482 0.289,-0.492 0.263,-0.492C0.239,-0.492 0.218,-0.482 0.202,-0.462C0.185,-0.442 0.173,-0.414 0.165,-0.379C0.157,-0.344 0.153,-0.303 0.153,-0.257Z" style="fill-rule:nonzero;"></path>
                </g>
                <g transform="matrix(350,0,0,350,2146.44,1418.81)">
                    <path d="M0.205,0.015C0.174,0.015 0.146,0.005 0.12,-0.015C0.094,-0.035 0.074,-0.063 0.058,-0.097C0.042,-0.132 0.034,-0.171 0.034,-0.214C0.034,-0.255 0.04,-0.294 0.052,-0.331C0.064,-0.367 0.081,-0.4 0.103,-0.428C0.125,-0.457 0.152,-0.479 0.183,-0.496C0.213,-0.512 0.248,-0.52 0.285,-0.52C0.3,-0.52 0.313,-0.519 0.326,-0.516C0.338,-0.514 0.35,-0.51 0.362,-0.506L0.362,-0.62C0.362,-0.645 0.357,-0.665 0.347,-0.681C0.336,-0.697 0.323,-0.708 0.306,-0.715L0.306,-0.725C0.325,-0.728 0.345,-0.732 0.364,-0.738C0.383,-0.744 0.401,-0.752 0.418,-0.762C0.435,-0.772 0.45,-0.783 0.462,-0.794L0.471,-0.794L0.471,-0.141C0.471,-0.114 0.475,-0.093 0.483,-0.077C0.49,-0.061 0.503,-0.05 0.52,-0.043L0.52,-0.035C0.493,-0.032 0.467,-0.025 0.442,-0.016C0.417,-0.007 0.393,0.005 0.371,0.019L0.362,0.019L0.362,-0.029C0.362,-0.037 0.362,-0.046 0.362,-0.055C0.363,-0.064 0.363,-0.071 0.364,-0.077L0.362,-0.078C0.35,-0.064 0.336,-0.049 0.32,-0.035C0.303,-0.021 0.286,-0.009 0.266,0.001C0.247,0.01 0.227,0.015 0.205,0.015ZM0.269,-0.063C0.285,-0.063 0.301,-0.067 0.316,-0.074C0.332,-0.082 0.347,-0.093 0.362,-0.107L0.362,-0.401C0.362,-0.427 0.355,-0.448 0.342,-0.464C0.328,-0.48 0.31,-0.488 0.287,-0.488C0.26,-0.488 0.236,-0.478 0.215,-0.457C0.194,-0.436 0.178,-0.408 0.167,-0.373C0.155,-0.339 0.149,-0.3 0.15,-0.257C0.15,-0.197 0.161,-0.149 0.182,-0.115C0.203,-0.08 0.232,-0.063 0.269,-0.063Z" style="fill-rule:nonzero;"></path>
                </g>
                <g transform="matrix(350,0,0,350,2324.59,1418.81)">
                    <path d="M0.285,-0.137L0.226,0.006L0.057,-0.395C0.044,-0.426 0.032,-0.45 0.021,-0.466C0.01,-0.483 -0.003,-0.495 -0.017,-0.502L-0.017,-0.511L0.212,-0.511L0.212,-0.502C0.2,-0.496 0.19,-0.488 0.182,-0.478C0.174,-0.468 0.17,-0.457 0.169,-0.443C0.169,-0.43 0.172,-0.414 0.18,-0.395L0.285,-0.137ZM0.062,0.214C0.047,0.214 0.032,0.211 0.018,0.205C0.003,0.198 -0.008,0.19 -0.017,0.179C-0.025,0.167 -0.03,0.154 -0.03,0.14C-0.03,0.122 -0.024,0.107 -0.013,0.097C-0.002,0.086 0.01,0.081 0.024,0.081C0.036,0.081 0.046,0.084 0.053,0.091C0.061,0.097 0.067,0.104 0.072,0.113C0.078,0.121 0.083,0.128 0.089,0.135C0.095,0.141 0.102,0.144 0.11,0.144C0.123,0.144 0.135,0.138 0.145,0.127C0.155,0.117 0.164,0.103 0.173,0.087C0.181,0.07 0.189,0.053 0.196,0.035L0.367,-0.395C0.375,-0.412 0.378,-0.428 0.376,-0.442C0.375,-0.456 0.371,-0.469 0.363,-0.479C0.356,-0.489 0.347,-0.497 0.336,-0.502L0.336,-0.511L0.485,-0.511L0.485,-0.502C0.476,-0.498 0.467,-0.49 0.458,-0.479C0.449,-0.467 0.441,-0.454 0.433,-0.44C0.425,-0.425 0.418,-0.41 0.411,-0.395L0.228,0.051C0.214,0.085 0.199,0.115 0.182,0.139C0.166,0.163 0.148,0.182 0.129,0.195C0.109,0.207 0.087,0.214 0.062,0.214Z" style="fill-rule:nonzero;"></path>
                </g>
            </g>
            <g transform="matrix(1,0,0,1,182.723,-386.848)">
                <g transform="matrix(100,0,0,100,1126.72,1200.92)">
                    <path d="M0.086,-0.034C0.114,-0.01 0.156,0.009 0.206,0.009C0.347,0.009 0.455,-0.126 0.455,-0.285C0.455,-0.414 0.378,-0.51 0.282,-0.51C0.203,-0.51 0.14,-0.455 0.103,-0.407C0.104,-0.426 0.104,-0.442 0.104,-0.457L0.104,-0.786L0.101,-0.786C0.079,-0.76 0.046,-0.743 0.012,-0.739L0.012,-0.736C0.043,-0.724 0.056,-0.701 0.056,-0.666L0.056,0.005L0.058,0.005L0.086,-0.034ZM0.401,-0.267C0.403,-0.11 0.318,-0.003 0.208,-0.003C0.15,-0.003 0.104,-0.035 0.104,-0.101L0.104,-0.397C0.154,-0.443 0.199,-0.467 0.254,-0.467C0.34,-0.467 0.399,-0.389 0.401,-0.267Z" style="fill-rule:nonzero;"></path>
                </g>
                <g transform="matrix(100,0,0,100,1176.42,1200.92)">
                    <path d="M0.043,0.212C0.115,0.212 0.159,0.159 0.2,0.049L0.367,-0.401C0.382,-0.439 0.409,-0.481 0.43,-0.492L0.43,-0.495L0.326,-0.495L0.326,-0.492C0.354,-0.474 0.366,-0.444 0.351,-0.405L0.227,-0.067L0.09,-0.405C0.074,-0.445 0.087,-0.475 0.117,-0.492L0.117,-0.495L-0.023,-0.495L-0.023,-0.492C-0.004,-0.48 0.011,-0.468 0.037,-0.405L0.202,-0L0.187,0.043C0.152,0.137 0.112,0.192 0.059,0.192C-0.007,0.192 0.023,0.102 -0.031,0.102C-0.052,0.102 -0.065,0.118 -0.065,0.136C-0.065,0.171 -0.018,0.212 0.043,0.212Z" style="fill-rule:nonzero;"></path>
                </g>
                <g transform="matrix(100,0,0,100,1234.92,1200.92)">
                    <path d="M0.078,-0.126C0.056,-0.066 0.017,-0.016 -0.017,-0.003L-0.017,-0L0.153,-0L0.153,-0.003C0.113,-0.016 0.075,-0.065 0.098,-0.127L0.153,-0.284L0.437,-0.284L0.5,-0.118C0.52,-0.063 0.504,-0.017 0.463,-0.003L0.463,-0L0.638,-0L0.638,-0.003C0.607,-0.015 0.585,-0.049 0.558,-0.121L0.317,-0.755L0.307,-0.755L0.078,-0.126ZM0.159,-0.299L0.292,-0.671L0.431,-0.299L0.159,-0.299Z" style="fill-rule:nonzero;"></path>
                </g>
                <g transform="matrix(100,0,0,100,1299.42,1200.92)">
                    <path d="M0.117,-0.786L0.113,-0.786C0.092,-0.76 0.059,-0.743 0.023,-0.739L0.023,-0.736C0.053,-0.724 0.068,-0.699 0.068,-0.666L0.068,-0.076C0.068,-0.041 0.052,-0.018 0.026,-0.003L0.026,-0L0.157,-0L0.157,-0.003C0.133,-0.017 0.117,-0.041 0.117,-0.076L0.117,-0.786Z" style="fill-rule:nonzero;"></path>
                </g>
                <g transform="matrix(100,0,0,100,1319.32,1200.92)">
                    <path d="M0.043,0.212C0.115,0.212 0.159,0.159 0.2,0.049L0.367,-0.401C0.382,-0.439 0.409,-0.481 0.43,-0.492L0.43,-0.495L0.326,-0.495L0.326,-0.492C0.354,-0.474 0.366,-0.444 0.351,-0.405L0.227,-0.067L0.09,-0.405C0.074,-0.445 0.087,-0.475 0.117,-0.492L0.117,-0.495L-0.023,-0.495L-0.023,-0.492C-0.004,-0.48 0.011,-0.468 0.037,-0.405L0.202,-0L0.187,0.043C0.152,0.137 0.112,0.192 0.059,0.192C-0.007,0.192 0.023,0.102 -0.031,0.102C-0.052,0.102 -0.065,0.118 -0.065,0.136C-0.065,0.171 -0.018,0.212 0.043,0.212Z" style="fill-rule:nonzero;"></path>
                </g>
                <g transform="matrix(100,0,0,100,1379.82,1200.92)">
                    <path d="M0.259,0.01C0.457,0.01 0.617,-0.128 0.617,-0.379C0.617,-0.611 0.467,-0.76 0.238,-0.76C0.175,-0.76 0.111,-0.752 0.033,-0.74L0.033,-0.737C0.068,-0.724 0.088,-0.694 0.088,-0.664L0.088,-0.086C0.088,-0.051 0.071,-0.027 0.033,-0.013L0.033,-0.01C0.099,0.001 0.179,0.01 0.259,0.01ZM0.268,-0.007C0.186,-0.007 0.143,-0.047 0.143,-0.114L0.143,-0.645C0.143,-0.71 0.179,-0.744 0.253,-0.744C0.442,-0.744 0.551,-0.601 0.551,-0.368C0.551,-0.12 0.446,-0.007 0.268,-0.007Z" style="fill-rule:nonzero;"></path>
                </g>
                <g transform="matrix(100,0,0,100,1446.72,1200.92)">
                    <path d="M0.093,-0.605C0.114,-0.605 0.131,-0.624 0.131,-0.645C0.131,-0.668 0.114,-0.686 0.093,-0.686C0.072,-0.686 0.055,-0.668 0.055,-0.645C0.055,-0.624 0.072,-0.605 0.093,-0.605ZM0.031,-0L0.162,-0L0.162,-0.003C0.139,-0.017 0.124,-0.041 0.124,-0.076L0.124,-0.508L0.121,-0.508C0.099,-0.482 0.066,-0.464 0.03,-0.461L0.03,-0.458C0.063,-0.445 0.074,-0.417 0.074,-0.388L0.074,-0.076C0.074,-0.041 0.056,-0.018 0.031,-0.003L0.031,-0Z" style="fill-rule:nonzero;"></path>
                </g>
                <g transform="matrix(100,0,0,100,1467.32,1200.92)">
                    <path d="M0.033,-0.74L0.033,-0.737C0.071,-0.723 0.088,-0.698 0.088,-0.664L0.088,-0.086C0.088,-0.047 0.072,-0.017 0.033,-0.003L0.033,-0L0.199,-0L0.199,-0.003C0.161,-0.017 0.143,-0.047 0.143,-0.086L0.143,-0.346C0.148,-0.344 0.154,-0.341 0.159,-0.339C0.243,-0.17 0.422,-0.034 0.589,0.032L0.591,0.028C0.437,-0.061 0.302,-0.196 0.234,-0.321C0.25,-0.318 0.266,-0.317 0.282,-0.317C0.398,-0.317 0.536,-0.392 0.536,-0.544C0.536,-0.673 0.435,-0.76 0.256,-0.76C0.198,-0.76 0.117,-0.751 0.033,-0.74ZM0.143,-0.645C0.143,-0.71 0.179,-0.745 0.261,-0.745C0.401,-0.745 0.476,-0.661 0.476,-0.536C0.476,-0.407 0.392,-0.334 0.263,-0.334C0.228,-0.334 0.188,-0.339 0.143,-0.354L0.143,-0.645Z" style="fill-rule:nonzero;"></path>
                </g>
                <g transform="matrix(100,0,0,100,1521.72,1200.92)">
                    <path d="M0.03,-0.249C0.03,-0.107 0.126,0.015 0.241,0.015C0.357,0.015 0.451,-0.106 0.451,-0.249C0.451,-0.391 0.36,-0.51 0.241,-0.51C0.124,-0.51 0.03,-0.39 0.03,-0.249ZM0.089,-0.249C0.089,-0.395 0.142,-0.498 0.241,-0.498C0.341,-0.498 0.393,-0.395 0.393,-0.249C0.393,-0.102 0.336,0.003 0.241,0.003C0.145,0.003 0.089,-0.102 0.089,-0.249Z" style="fill-rule:nonzero;"></path>
                </g>
                <g transform="matrix(100,0,0,100,1571.42,1200.92)">
                    <path d="M0.028,-0.003L0.028,-0L0.165,-0L0.165,-0.003C0.137,-0.021 0.123,-0.045 0.123,-0.075L0.123,-0.386C0.185,-0.442 0.236,-0.468 0.28,-0.468C0.335,-0.468 0.363,-0.43 0.363,-0.379L0.363,-0.075C0.363,-0.045 0.35,-0.021 0.32,-0.003L0.32,-0L0.45,-0L0.45,-0.003C0.424,-0.021 0.412,-0.045 0.412,-0.076L0.412,-0.386C0.473,-0.442 0.524,-0.468 0.568,-0.468C0.624,-0.468 0.652,-0.43 0.652,-0.379L0.652,-0.075C0.652,-0.045 0.639,-0.021 0.609,-0.003L0.609,-0L0.739,-0L0.739,-0.003C0.713,-0.021 0.7,-0.045 0.7,-0.076L0.7,-0.395C0.7,-0.463 0.661,-0.51 0.596,-0.51C0.528,-0.51 0.46,-0.453 0.411,-0.396C0.412,-0.463 0.372,-0.51 0.308,-0.51C0.239,-0.51 0.17,-0.453 0.122,-0.396C0.123,-0.414 0.123,-0.43 0.123,-0.449L0.123,-0.508L0.12,-0.508C0.099,-0.48 0.065,-0.464 0.028,-0.461L0.028,-0.458C0.062,-0.444 0.074,-0.425 0.074,-0.393L0.074,-0.076C0.074,-0.045 0.057,-0.022 0.028,-0.003Z" style="fill-rule:nonzero;"></path>
                </g>
                <g transform="matrix(100,0,0,100,1649.22,1200.92)">
                    <path d="M0.025,-0.096C0.025,-0.035 0.067,0.014 0.133,0.014C0.203,0.014 0.28,-0.041 0.318,-0.088L0.318,-0.056C0.318,-0.012 0.338,0.015 0.373,0.015C0.404,0.015 0.433,-0.009 0.45,-0.033L0.448,-0.035C0.432,-0.021 0.416,-0.015 0.401,-0.015C0.374,-0.015 0.366,-0.035 0.366,-0.066C0.366,-0.159 0.369,-0.328 0.369,-0.414C0.369,-0.47 0.325,-0.51 0.248,-0.51C0.151,-0.51 0.046,-0.445 0.046,-0.392C0.046,-0.374 0.058,-0.36 0.078,-0.36C0.145,-0.36 0.108,-0.498 0.244,-0.498C0.301,-0.498 0.32,-0.467 0.32,-0.414C0.32,-0.39 0.319,-0.354 0.319,-0.313C0.132,-0.287 0.025,-0.191 0.025,-0.096ZM0.079,-0.115C0.079,-0.199 0.151,-0.272 0.319,-0.302C0.319,-0.238 0.318,-0.163 0.318,-0.099C0.272,-0.052 0.216,-0.026 0.165,-0.026C0.11,-0.026 0.079,-0.061 0.079,-0.115Z" style="fill-rule:nonzero;"></path>
                </g>
            </g>
        </g>
    </g>
</svg>
